<?xml version="1.0" encoding="UTF-8" standalone="no"?>
<!-- Created with Inkscape (http://www.inkscape.org/) -->

<svg
   width="300mm"
   height="400mm"
   viewBox="0 0 300 400"
   version="1.1"
   id="svg1"
   xmlns="http://www.w3.org/2000/svg"
   xmlns:svg="http://www.w3.org/2000/svg">
  <g
     id="layer1">
    <path
       d="M 36.421429,12.860173 H 251.67936 c 10.45105,0 19.11633,8.565797 19.11633,19.13255 V 316.66675 c 0,9.50842 -7.0612,17.42934 -16.10643,18.83516 v 17.52882 c 0,6.87916 -5.65538,12.43541 -12.53454,12.43541 h -0.46302 v 24.02735 c 0,3.58845 -2.91042,6.49887 -6.49888,6.49887 -3.58845,0 -6.49887,-2.91042 -6.49887,-6.49887 v -24.04393 h -4.81224 v 24.02734 c 0,3.58846 -2.91042,6.49888 -6.49887,6.49888 -3.58846,0 -6.49887,-2.91042 -6.49887,-6.49888 v -24.02734 h -0.57877 c -6.86259,0 -12.43542,-5.55625 -12.43542,-12.43541 V 335.78307 H 90.216124 v 17.23108 c 0,6.87916 -5.55625,12.43541 -12.435415,12.43541 h -0.56226 v 24.02734 c 0,3.58846 -2.91041,6.49888 -6.49887,6.49888 -3.58845,0 -6.49887,-2.91042 -6.49887,-6.49888 v -24.02734 h -4.71276 v 24.02734 c 0,3.58846 -3.00962,6.49888 -6.49887,6.49888 -3.58846,0 -6.598,-2.91042 -6.598,-6.49888 v -24.02734 h -0.46302 c -6.87917,0 -12.53455,-5.55625 -12.53455,-12.43541 v -17.52882 c -9.04557,-1.40561 -16.00729,-9.32674 -16.00729,-18.83516 l -0.0165,-284.656389 c 0,-10.550172 8.58238,-19.13255 19.03342,-19.13255 z M 241.6887,335.78236 h -30.7908 v 16.66875 h 30.7908 z m -164.486161,0 h -30.70824 v 16.66875 h 30.70824 z M 96.054274,265.0222 v 2.2655 c -11.31076,2.92696 -19.595735,13.09688 -19.595735,25.25113 0,14.40321 11.691395,26.09462 26.094611,26.09462 14.40321,0 26.09461,-11.67483 26.09461,-26.09462 0,-12.15425 -8.38411,-22.32413 -19.59574,-25.25113 v -2.2655 c 0,-3.57188 -2.91042,-6.49887 -6.49887,-6.49887 -3.588456,0.0165 -6.498876,2.92696 -6.498876,6.49887 z m 0,16.22213 c 0.0827,3.38998 3.00962,6.21771 6.498876,6.21771 3.47267,0 6.30025,-2.82773 6.49887,-6.21771 3.85304,2.16627 6.598,6.39974 6.598,11.31076 0,7.25946 -5.93654,13.09688 -13.09687,13.09688 -7.259466,0 -13.096876,-5.83742 -13.096876,-13.09688 0,-4.91137 2.64583,-9.16128 6.598,-11.31076 z M 174.5191,265.0222 v 2.2655 c -11.21163,2.92696 -19.49661,13.09688 -19.49661,25.25113 0,14.40321 11.57534,26.09462 25.99549,26.09462 14.42014,0 26.09462,-11.67483 26.09462,-26.09462 0,-12.15425 -8.28464,-22.32413 -19.59575,-25.25113 v -2.2655 c 0,-3.57188 -2.91042,-6.49887 -6.49887,-6.49887 -3.57188,0.0165 -6.49888,2.92696 -6.49888,6.49887 z m 0,16.22213 c 0.1819,3.38998 3.02617,6.21771 6.49888,6.21771 3.48918,0 6.41632,-2.82773 6.49887,-6.21771 3.96875,2.16627 6.598,6.39974 6.598,11.31076 0,7.25946 -5.83741,13.09688 -13.09687,13.09688 -7.16033,0 -12.99775,-5.83742 -12.99775,-13.09688 0,-4.91137 2.62929,-9.16128 6.49887,-11.31076 z M 58.564589,241.39103 H 229.5348 c 6.87916,0 12.53454,5.65538 12.53454,12.43541 v 68.95747 h 9.60755 c 3.29075,0 6.11858,-2.72852 6.11858,-6.11857 V 214.83251 H 30.401989 v 101.83283 c 0,3.38998 2.72852,6.11857 6.03567,6.11857 h 9.70704 l -0.0166,-68.95747 c 0,-6.79661 5.55625,-12.43541 12.43542,-12.43541 z M 229.05502,322.78391 V 254.39089 H 59.125509 v 68.39302 z M 125.05966,170.74728 c -28.360156,-26.09462 -35.422406,-51.05047 -3.20809,-78.648282 13.94037,-11.95599 9.98785,-13.758332 4.81224,-29.864753 -2.16626,-6.416323 5.07683,-11.873089 10.55017,-8.020051 21.481,11.112501 42.8625,27.599216 48.79623,52.172306 6.2177,25.71433 -7.82179,44.28419 -19.59575,64.9217 -3.67101,6.2177 -13.27891,3.57187 -13.09688,-3.77049 0.28113,-9.24384 -0.56225,-20.17466 -5.73828,-28.27726 -0.76066,-1.32292 -1.32292,-0.94259 -2.06707,0.19844 -5.73828,7.63975 -7.0612,18.47109 -7.34201,27.59921 -0.29765,7.45808 -7.63975,8.68151 -13.11345,3.68759 z m 1.32292,-17.04905 c 1.32291,-7.90434 3.85304,-15.54409 8.66493,-22.04296 6.30025,-8.38412 17.7934,-8.38412 23.54791,0.66146 3.10886,4.89479 5.09341,10.35191 6.23429,16.00729 6.78004,-11.95599 11.95599,-24.58967 8.5658,-38.89375 -3.86962,-15.643582 -16.10642,-27.599221 -29.58359,-36.364337 2.72852,12.914841 -4.0513,20.819535 -13.47717,28.922137 -7.63976,6.49887 -17.04905,16.48671 -16.76788,27.3184 0.28112,8.54922 6.31684,17.31363 12.81571,24.39141 z m 131.41677,48.13653 H 30.405869 V 31.9899 c 0,-3.389982 2.72852,-6.118577 6.03567,-6.118577 H 251.69947 c 3.29075,0 6.11858,2.728524 6.11858,6.118577 z"
       style="fill-rule:evenodd;stroke-width:0.352778"
       id="path1" />
  </g>
</svg>
