<svg xmlns="http://www.w3.org/2000/svg" viewBox="0 0 300 400">
  <path fill="currentColor" fill-rule="evenodd" d="M 40.402121,8.3675365 H 255.66006 c 10.45104,0 19.11632,8.5657975 19.11632,19.1325505 V 312.17411 c 0,9.50842 -7.0612,17.42934 -16.10642,18.83516 v 17.52882 c 0,6.87916 -5.65538,12.43541 -12.53455,12.43541 h -0.46302 v 24.02735 c 0,3.58845 -2.91041,6.49887 -6.49887,6.49887 -3.58845,0 -6.49887,-2.91042 -6.49887,-6.49887 v -24.04393 h -4.81224 v 24.02734 c 0,3.58846 -2.91042,6.49888 -6.49887,6.49888 -3.58846,0 -6.49888,-2.91042 -6.49888,-6.49888 v -24.02734 h -0.57876 c -6.86259,0 -12.43542,-5.55625 -12.43542,-12.43541 V 331.29043 H 94.19682 v 17.23108 c 0,6.87916 -5.55625,12.43541 -12.43542,12.43541 h -0.56226 v 24.02734 c 0,3.58846 -2.91041,6.49888 -6.49887,6.49888 -3.58846,0 -6.49887,-2.91042 -6.49887,-6.49888 v -24.02734 h -4.71276 v 24.02734 c 0,3.58846 -3.00962,6.49888 -6.49887,6.49888 -3.58846,0 -6.598005,-2.91042 -6.598005,-6.49888 v -24.02734 h -0.463021 c -6.879167,0 -12.534547,-5.55625 -12.534547,-12.43541 V 330.99269 C 28.348622,329.58708 21.386906,321.66595 21.386906,312.15753 L 21.37036,27.501145 c 0,-10.550172 8.582378,-19.1325505 19.033419,-19.1325505 z M 245.66939,331.28972 H 214.8786 v 16.66875 h 30.79079 z m -164.48616,0 H 50.474985 v 16.66875 H 81.18323 Z m 18.85174,-70.76016 v 2.2655 c -11.31076,2.92696 -19.59575,13.09688 -19.59575,25.25113 0,14.40321 11.69141,26.09462 26.09462,26.09462 14.40321,0 26.09462,-11.67483 26.09462,-26.09462 0,-12.15425 -8.38412,-22.32413 -19.59575,-25.25113 v -2.2655 c 0,-3.57188 -2.91041,-6.49887 -6.49887,-6.49887 -3.58845,0.0165 -6.49887,2.92696 -6.49887,6.49887 z m 0,16.22213 c 0.0827,3.38998 3.00962,6.21771 6.49887,6.21771 3.47268,0 6.30026,-2.82773 6.49887,-6.21771 3.85304,2.16627 6.59801,6.39974 6.59801,11.31076 0,7.25946 -5.93655,13.09688 -13.09688,13.09688 -7.25946,0 -13.09687,-5.83742 -13.09687,-13.09688 0,-4.91137 2.64583,-9.16128 6.598,-11.31076 z m 78.46483,-16.22213 v 2.2655 c -11.21163,2.92696 -19.49661,13.09688 -19.49661,25.25113 0,14.40321 11.57534,26.09462 25.99548,26.09462 14.42015,0 26.09462,-11.67483 26.09462,-26.09462 0,-12.15425 -8.28463,-22.32413 -19.59574,-25.25113 v -2.2655 c 0,-3.57188 -2.91042,-6.49887 -6.49888,-6.49887 -3.57187,0.0165 -6.49887,2.92696 -6.49887,6.49887 z m 0,16.22213 c 0.1819,3.38998 3.02616,6.21771 6.49887,6.21771 3.48919,0 6.41633,-2.82773 6.49888,-6.21771 3.96875,2.16627 6.598,6.39974 6.598,11.31076 0,7.25946 -5.83742,13.09688 -13.09688,13.09688 -7.16033,0 -12.99774,-5.83742 -12.99774,-13.09688 0,-4.91137 2.62929,-9.16128 6.49887,-11.31076 z M 62.54528,236.89839 h 170.97021 c 6.87917,0 12.53455,5.65538 12.53455,12.43541 v 68.95747 h 9.60755 c 3.29075,0 6.11858,-2.72852 6.11858,-6.11857 V 210.33987 H 34.382674 V 312.1727 c 0,3.38998 2.728525,6.11857 6.035675,6.11857 h 9.707033 l -0.01654,-68.95747 c 0,-6.79661 5.556248,-12.43541 12.435408,-12.43541 z m 170.49044,81.39288 V 249.89825 H 63.10619 v 68.39302 z M 129.04036,166.25464 c -28.36016,-26.09462 -35.42242,-51.05047 -3.20809,-78.64828 13.94036,-11.95599 9.98784,-13.75833 4.81224,-29.86475 -2.16627,-6.416324 5.07682,-11.87309 10.55017,-8.020052 21.48099,11.112502 42.8625,27.599212 48.79622,52.172302 6.21771,25.71433 -7.82179,44.2842 -19.59574,64.9217 -3.67101,6.2177 -13.27891,3.57187 -13.09688,-3.77049 0.28112,-9.24384 -0.56226,-20.17466 -5.73828,-28.27726 -0.76066,-1.32291 -1.32292,-0.94258 -2.06707,0.19844 -5.73828,7.63975 -7.0612,18.47109 -7.34201,27.59922 -0.29766,7.45807 -7.63975,8.6815 -13.11345,3.68758 z m 1.32291,-17.04904 c 1.32292,-7.90434 3.85304,-15.5441 8.66493,-22.04297 6.30026,-8.38412 17.79341,-8.38412 23.54792,0.66146 3.10885,4.89479 5.0934,10.35191 6.23429,16.00729 6.78003,-11.95599 11.95599,-24.58967 8.56579,-38.89375 -3.86961,-15.64358 -16.10642,-27.59922 -29.58359,-36.36433 2.72853,12.91484 -4.0513,20.81953 -13.47717,28.92213 -7.63975,6.49887 -17.04904,16.48672 -16.76788,27.3184 0.28113,8.54922 6.31684,17.31363 12.81571,24.39141 z m 131.41678,48.13652 H 34.386555 V 27.497264 c 0,-3.389982 2.728524,-6.118577 6.035675,-6.118577 h 215.25794 c 3.29075,0 6.11858,2.728524 6.11858,6.118577 z" />
</svg>